<mxfile host="app.diagrams.net" agent="Mozilla/5.0 (X11; Linux x86_64) AppleWebKit/537.36 (KHTML, like Gecko) Chrome/134.0.0.0 Safari/537.36" version="26.1.3">
  <diagram name="ページ1" id="RfrnP6_M_SzfQKZJGISI">
    <mxGraphModel dx="988" dy="524" grid="1" gridSize="10" guides="1" tooltips="1" connect="1" arrows="1" fold="1" page="1" pageScale="1" pageWidth="827" pageHeight="1169" math="1" shadow="0">
      <root>
        <mxCell id="0" />
        <mxCell id="1" parent="0" />
        <mxCell id="cQnMlfbmOmpAWn_BimNy-1" value="" style="shape=parallelogram;perimeter=parallelogramPerimeter;whiteSpace=wrap;html=1;fixedSize=1;size=82.86000000000013;rotation=50;" vertex="1" parent="1">
          <mxGeometry x="155.2" y="220" width="370" height="160" as="geometry" />
        </mxCell>
        <mxCell id="cQnMlfbmOmpAWn_BimNy-3" value="" style="endArrow=none;html=1;rounded=0;" edge="1" parent="1">
          <mxGeometry width="50" height="50" relative="1" as="geometry">
            <mxPoint x="315.2" y="470" as="sourcePoint" />
            <mxPoint x="315.2" y="394" as="targetPoint" />
          </mxGeometry>
        </mxCell>
        <mxCell id="cQnMlfbmOmpAWn_BimNy-11" value="" style="shape=parallelogram;perimeter=parallelogramPerimeter;whiteSpace=wrap;html=1;fixedSize=1;rotation=90;direction=west;size=110.47000000000003;" vertex="1" parent="1">
          <mxGeometry x="143.1" y="120.6" width="245.89" height="97.5" as="geometry" />
        </mxCell>
        <mxCell id="cQnMlfbmOmpAWn_BimNy-6" value="" style="shape=parallelogram;perimeter=parallelogramPerimeter;whiteSpace=wrap;html=1;fixedSize=1;flipH=1;rotation=90;size=42.33000000000004;aspect=fixed;" vertex="1" parent="1">
          <mxGeometry x="249.52999999999997" y="131.01999999999998" width="181.33" height="187.25" as="geometry" />
        </mxCell>
        <mxCell id="cQnMlfbmOmpAWn_BimNy-2" value="" style="endArrow=none;html=1;rounded=0;" edge="1" parent="1">
          <mxGeometry width="50" height="50" relative="1" as="geometry">
            <mxPoint x="315.2" y="300" as="sourcePoint" />
            <mxPoint x="315.2" y="130" as="targetPoint" />
          </mxGeometry>
        </mxCell>
        <mxCell id="cQnMlfbmOmpAWn_BimNy-8" value="" style="shape=parallelogram;perimeter=parallelogramPerimeter;whiteSpace=wrap;html=1;fixedSize=1;rotation=90;direction=west;size=110.47000000000003;" vertex="1" parent="1">
          <mxGeometry x="241.2" y="231" width="252.19" height="105" as="geometry" />
        </mxCell>
        <mxCell id="cQnMlfbmOmpAWn_BimNy-4" value="" style="shape=partialRectangle;whiteSpace=wrap;html=1;bottom=0;right=0;fillColor=none;rotation=90;" vertex="1" parent="1">
          <mxGeometry x="315.2" y="290" width="10" height="10" as="geometry" />
        </mxCell>
        <mxCell id="cQnMlfbmOmpAWn_BimNy-9" value="" style="endArrow=none;dashed=1;html=1;rounded=0;exitX=1;exitY=1;exitDx=0;exitDy=0;entryX=0.221;entryY=0.052;entryDx=0;entryDy=0;entryPerimeter=0;" edge="1" parent="1" source="cQnMlfbmOmpAWn_BimNy-6" target="cQnMlfbmOmpAWn_BimNy-6">
          <mxGeometry width="50" height="50" relative="1" as="geometry">
            <mxPoint x="165.2" y="300" as="sourcePoint" />
            <mxPoint x="435.19999999999993" y="280" as="targetPoint" />
          </mxGeometry>
        </mxCell>
        <mxCell id="cQnMlfbmOmpAWn_BimNy-20" value="" style="rounded=0;whiteSpace=wrap;html=1;direction=south;strokeColor=none;" vertex="1" parent="1">
          <mxGeometry x="215.2" y="40" width="12" height="154" as="geometry" />
        </mxCell>
        <mxCell id="cQnMlfbmOmpAWn_BimNy-21" value="" style="endArrow=none;html=1;rounded=0;entryX=0.111;entryY=0;entryDx=0;entryDy=0;entryPerimeter=0;exitX=1;exitY=0;exitDx=0;exitDy=0;" edge="1" parent="1" source="cQnMlfbmOmpAWn_BimNy-20" target="cQnMlfbmOmpAWn_BimNy-20">
          <mxGeometry width="50" height="50" relative="1" as="geometry">
            <mxPoint x="285.2" y="210" as="sourcePoint" />
            <mxPoint x="335.2" y="160" as="targetPoint" />
          </mxGeometry>
        </mxCell>
        <mxCell id="cQnMlfbmOmpAWn_BimNy-22" value="" style="rounded=0;whiteSpace=wrap;html=1;direction=south;perimeterSpacing=0;strokeColor=none;" vertex="1" parent="1">
          <mxGeometry x="424.19999999999993" y="133" width="11" height="142" as="geometry" />
        </mxCell>
        <mxCell id="cQnMlfbmOmpAWn_BimNy-23" value="" style="endArrow=none;html=1;rounded=0;exitX=1;exitY=1;exitDx=0;exitDy=0;entryX=0.026;entryY=0.995;entryDx=0;entryDy=0;entryPerimeter=0;" edge="1" parent="1" source="cQnMlfbmOmpAWn_BimNy-22" target="cQnMlfbmOmpAWn_BimNy-22">
          <mxGeometry width="50" height="50" relative="1" as="geometry">
            <mxPoint x="385.2" y="260" as="sourcePoint" />
            <mxPoint x="424.19999999999993" y="140" as="targetPoint" />
          </mxGeometry>
        </mxCell>
        <mxCell id="cQnMlfbmOmpAWn_BimNy-26" value="$$(S)$$" style="text;strokeColor=none;align=center;fillColor=none;html=1;verticalAlign=middle;whiteSpace=wrap;rounded=0;fontSize=16;" vertex="1" parent="1">
          <mxGeometry x="460" y="360" width="40" height="40" as="geometry" />
        </mxCell>
        <mxCell id="cQnMlfbmOmpAWn_BimNy-27" value="$$(l)$$" style="text;strokeColor=none;align=center;fillColor=none;html=1;verticalAlign=middle;whiteSpace=wrap;rounded=0;fontSize=16;" vertex="1" parent="1">
          <mxGeometry x="300.2" y="91.01999999999998" width="40" height="40" as="geometry" />
        </mxCell>
        <mxCell id="cQnMlfbmOmpAWn_BimNy-28" value="$$(S&#39;&#39;)$$" style="text;strokeColor=none;align=center;fillColor=none;html=1;verticalAlign=middle;whiteSpace=wrap;rounded=0;fontSize=16;" vertex="1" parent="1">
          <mxGeometry x="227.2" y="91.01999999999998" width="40" height="40" as="geometry" />
        </mxCell>
        <mxCell id="cQnMlfbmOmpAWn_BimNy-29" value="$$(S&#39;)$$" style="text;strokeColor=none;align=center;fillColor=none;html=1;verticalAlign=middle;whiteSpace=wrap;rounded=0;fontSize=16;" vertex="1" parent="1">
          <mxGeometry x="384.2" y="149.35" width="40" height="40" as="geometry" />
        </mxCell>
      </root>
    </mxGraphModel>
  </diagram>
</mxfile>
